{"glyphs":{"0":{"ha":748,"x_min":122,"x_max":884,"o":"m 717 258 q 367 -35 660 -35 q 122 171 122 -35 q 132 258 122 211 l 290 1072 q 639 1366 347 1366 q 884 1160 884 1366 q 875 1072 884 1120 l 717 258 m 649 1072 q 597 1149 664 1149 l 596 1149 q 515 1072 530 1149 l 357 258 q 409 182 342 182 q 491 258 476 182 l 649 1072 z "},"1":{"ha":762,"x_min":85,"x_max":755,"o":"m 755 1344 l 533 203 l 713 203 l 671 -14 l 85 -14 l 127 203 l 307 203 l 487 1128 l 307 1128 l 349 1344 l 755 1344 z "},"2":{"ha":762,"x_min":85,"x_max":891,"o":"m 144 286 q 391 604 180 471 q 605 811 588 728 l 656 1072 q 605 1149 671 1149 l 604 1149 q 522 1072 537 1149 l 485 880 l 259 880 l 296 1072 q 646 1366 353 1366 q 891 1160 891 1366 q 882 1072 891 1120 l 830 806 q 582 484 793 617 q 366 269 384 360 l 353 203 l 713 203 l 671 -14 l 85 -14 l 144 286 z "},"3":{"ha":762,"x_min":129,"x_max":891,"o":"m 362 259 q 416 182 349 182 q 500 259 483 182 l 544 486 q 536 559 556 550 q 496 565 526 565 l 414 565 l 456 781 l 553 781 q 585 787 574 781 q 616 857 604 797 l 658 1072 q 604 1149 671 1149 q 520 1072 537 1149 l 483 880 l 259 880 l 296 1072 q 646 1366 353 1365 q 891 1160 891 1366 q 882 1072 891 1120 l 840 856 q 713 671 812 718 q 768 486 795 624 l 724 259 q 374 -35 667 -35 q 129 172 129 -34 q 138 259 129 212 l 176 451 l 399 451 l 362 259 z "},"4":{"ha":762,"x_min":96,"x_max":912,"o":"m 912 1344 l 753 529 l 827 529 l 785 313 l 711 313 l 648 -14 l 422 -14 l 486 313 l 96 313 l 132 496 l 638 1344 l 912 1344 m 368 529 l 528 529 l 606 935 l 368 529 z "},"5":{"ha":762,"x_min":123,"x_max":928,"o":"m 565 636 q 558 707 577 699 q 515 713 547 713 q 498 713 507 713 q 441 673 454 711 l 425 607 l 199 607 l 372 1344 l 928 1344 l 886 1128 l 547 1128 l 492 901 q 611 925 518 925 q 637 924 624 925 q 785 836 743 914 q 791 636 818 774 l 718 258 q 368 -35 661 -35 q 123 171 123 -35 q 132 258 123 211 l 165 429 l 391 429 l 358 258 q 410 182 343 182 q 492 258 477 182 l 565 636 z "},"6":{"ha":762,"x_min":129,"x_max":891,"o":"m 730 292 l 724 258 q 374 -35 667 -35 q 129 171 129 -35 q 138 258 129 211 l 144 292 l 296 1072 q 646 1366 353 1366 q 891 1160 891 1366 q 882 1072 891 1120 l 844 880 l 618 880 l 656 1072 q 604 1149 671 1149 l 603 1149 q 522 1072 537 1149 l 467 784 q 587 810 500 810 q 618 809 602 810 q 760 738 715 799 q 775 523 805 676 l 730 292 m 370 292 l 364 258 q 416 182 349 182 q 498 258 483 182 l 504 292 l 549 523 q 542 594 562 586 q 499 600 531 600 q 482 600 491 600 q 416 523 430 597 l 370 292 z "},"7":{"ha":762,"x_min":178,"x_max":945,"o":"m 301 1128 l 343 1344 l 945 1344 l 916 1193 l 410 -14 l 178 -14 l 656 1128 l 301 1128 z "},"8":{"ha":762,"x_min":129,"x_max":891,"o":"m 478 855 q 531 776 463 776 q 616 855 600 776 l 658 1072 q 604 1149 671 1149 q 520 1072 537 1149 l 478 855 m 182 484 q 309 669 209 622 q 254 854 227 715 l 296 1072 q 646 1366 353 1365 q 891 1160 891 1366 q 882 1072 891 1120 l 839 854 q 712 669 812 715 q 767 484 794 622 l 724 259 q 374 -35 667 -35 q 129 172 129 -34 q 138 259 129 212 l 182 484 m 362 259 q 416 182 349 182 q 500 259 483 182 l 543 484 q 536 557 556 548 q 493 563 525 563 q 475 562 484 563 q 406 484 420 560 l 362 259 z "},"9":{"ha":762,"x_min":129,"x_max":891,"o":"m 656 1072 q 604 1149 671 1149 q 522 1072 537 1149 l 471 808 q 478 736 459 745 q 519 731 488 731 q 538 732 528 731 q 604 808 590 733 l 656 1072 m 296 1072 q 646 1366 353 1365 q 891 1160 891 1366 q 882 1072 891 1120 l 724 258 q 374 -35 667 -35 q 129 171 129 -35 q 138 258 129 211 l 176 451 l 401 451 l 364 258 q 416 182 349 182 l 417 182 q 498 258 483 182 l 554 547 q 431 520 518 520 q 402 522 418 520 q 260 593 304 532 q 245 808 216 655 l 296 1072 z "}," ":{"ha":345,"x_min":0,"x_max":0,"o":""},"!":{"ha":418,"x_min":79,"x_max":597,"o":"m 597 1344 l 389 346 l 163 346 l 342 1344 l 597 1344 m 127 234 l 381 234 l 333 -14 l 79 -14 l 127 234 z "},"\"":{"ha":692,"x_min":276,"x_max":872,"o":"m 636 1345 l 872 1345 l 756 876 l 569 876 l 636 1345 m 343 1345 l 579 1345 l 463 876 l 276 876 l 343 1345 z "},"#":{"ha":949,"x_min":68,"x_max":1124,"o":"m 314 612 l 372 760 l 231 760 l 256 890 l 424 890 l 602 1345 l 797 1345 l 618 890 l 751 890 l 929 1345 l 1124 1345 l 945 890 l 1067 890 l 1042 760 l 894 760 l 836 612 l 985 612 l 960 481 l 784 481 l 589 -14 l 395 -14 l 589 481 l 457 481 l 262 -14 l 68 -14 l 262 481 l 148 481 l 173 612 l 314 612 m 567 760 l 509 612 l 641 612 l 699 760 l 567 760 z "},"$":{"ha":748,"x_min":126,"x_max":890,"o":"m 294 1094 q 547 1379 344 1348 l 570 1501 l 762 1501 l 738 1379 q 890 1189 890 1354 q 880 1094 890 1146 l 842 901 l 616 901 l 653 1094 q 602 1171 668 1170 l 601 1171 q 520 1094 535 1171 l 496 973 q 629 766 480 890 q 754 448 790 633 l 722 280 q 469 -5 672 26 l 437 -170 l 245 -170 l 277 -5 q 126 185 126 20 q 136 280 126 228 l 174 472 l 399 472 l 362 280 q 414 203 347 203 q 495 280 480 203 l 524 431 q 393 646 542 522 q 270 969 233 779 l 294 1094 z "},"%":{"ha":1185,"x_min":222,"x_max":1230,"o":"m 585 732 q 372 554 550 554 q 222 679 222 554 q 227 732 222 703 l 320 1209 q 534 1387 355 1387 q 677 1209 712 1387 l 585 732 m 1132 165 q 918 -13 1097 -13 l 917 -13 q 774 165 740 -13 l 867 642 q 1080 820 902 820 q 1230 695 1230 820 q 1225 642 1230 671 l 1132 165 m 1078 642 q 1055 682 1086 682 l 1053 682 q 1014 642 1022 682 l 921 165 q 945 125 913 125 q 985 165 978 125 l 1078 642 m 1170 1345 l 406 -14 l 252 -14 l 1016 1345 l 1170 1345 m 531 1209 q 507 1249 538 1249 l 505 1249 q 467 1209 474 1249 l 374 732 q 399 692 366 692 q 438 732 431 692 l 531 1209 z "},"&":{"ha":836,"x_min":126,"x_max":943,"o":"m 369 209 q 412 203 380 203 q 429 203 419 203 q 496 280 481 205 l 553 578 l 487 578 q 462 574 473 578 q 405 502 416 557 l 362 280 q 369 209 350 217 m 595 795 l 613 886 l 839 886 l 821 795 l 943 795 l 901 578 l 779 578 l 722 280 q 414 -12 667 -1 q 370 -13 391 -13 q 296 -9 327 -13 q 126 186 126 12 q 136 280 126 229 l 179 502 q 306 687 206 640 q 251 872 224 734 l 290 1072 q 577 1364 343 1344 q 639 1366 608 1366 q 692 1364 665 1366 q 876 1072 929 1348 l 861 1002 l 635 1002 l 650 1072 q 630 1147 663 1143 q 600 1150 616 1150 q 568 1148 585 1150 q 516 1072 530 1144 l 477 872 q 506 800 466 817 q 529 795 515 795 l 595 795 z "},"'":{"ha":399,"x_min":276,"x_max":579,"o":"m 343 1345 l 579 1345 l 463 876 l 276 876 l 343 1345 z "},"(":{"ha":403,"x_min":94,"x_max":676,"o":"m 347 -181 q 94 28 94 -178 q 103 113 94 66 l 318 1219 q 676 1512 374 1509 l 641 1329 q 550 1251 565 1326 l 323 81 q 383 3 308 5 l 347 -181 z "},")":{"ha":403,"x_min":-15,"x_max":567,"o":"m 21 3 q 111 81 96 5 l 338 1251 q 279 1329 353 1326 l 314 1512 q 567 1303 567 1510 q 558 1219 567 1265 l 343 113 q -15 -181 287 -178 l 21 3 z "},"*":{"ha":720,"x_min":301,"x_max":862,"o":"m 709 1273 q 694 1232 696 1238 l 694 1230 l 695 1231 l 695 1230 q 740 1247 699 1230 q 791 1260 768 1260 q 861 1185 850 1260 q 862 1162 862 1173 q 860 1138 862 1149 q 763 1059 847 1072 q 735 1058 751 1058 q 701 1056 701 1058 q 707 1053 701 1055 q 746 1011 720 1046 q 763 949 769 981 q 699 873 755 909 q 621 844 655 844 q 556 901 572 844 q 543 931 547 931 q 541 928 542 931 l 541 926 q 541 928 541 928 q 513 897 537 928 q 427 845 475 845 q 363 871 395 845 q 326 948 319 908 q 373 1013 332 981 q 419 1050 415 1049 q 429 1054 429 1053 q 398 1056 430 1056 q 364 1059 378 1056 q 301 1120 301 1072 q 303 1139 301 1129 q 319 1183 307 1158 q 417 1259 357 1259 q 469 1244 442 1259 q 502 1228 497 1228 q 503 1229 503 1228 q 502 1231 503 1230 q 505 1277 502 1230 q 508 1294 507 1286 q 627 1379 524 1378 l 629 1379 q 715 1298 731 1379 q 709 1273 713 1286 z "},"+":{"ha":744,"x_min":193,"x_max":810,"o":"m 388 573 l 193 573 l 229 758 l 424 758 l 462 953 l 653 953 l 615 758 l 810 758 l 774 573 l 579 573 l 541 378 l 350 378 l 388 573 z "},",":{"ha":435,"x_min":74,"x_max":399,"o":"m 127 234 l 399 234 l 358 24 l 231 -235 l 74 -235 l 157 -14 l 79 -14 l 127 234 z "},"-":{"ha":567,"x_min":142,"x_max":677,"o":"m 142 557 l 178 742 l 677 742 l 642 557 l 142 557 z "},".":{"ha":417,"x_min":79,"x_max":381,"o":"m 127 234 l 381 234 l 333 -14 l 79 -14 l 127 234 z "},"/":{"ha":547,"x_min":38,"x_max":767,"o":"m 767 1345 l 233 -14 l 38 -14 l 572 1345 l 767 1345 z "},":":{"ha":416,"x_min":79,"x_max":513,"o":"m 259 915 l 513 915 l 465 668 l 211 668 l 259 915 m 127 234 l 380 234 l 332 -14 l 79 -14 l 127 234 z "},";":{"ha":435,"x_min":74,"x_max":514,"o":"m 127 234 l 399 234 l 358 24 l 231 -235 l 74 -235 l 157 -14 l 79 -14 l 127 234 m 260 915 l 514 915 l 466 668 l 212 668 l 260 915 z "},"<":{"ha":744,"x_min":189,"x_max":875,"o":"m 230 766 l 875 1092 l 832 873 l 407 663 l 751 459 l 709 240 l 189 555 l 230 766 z "},"=":{"ha":744,"x_min":162,"x_max":840,"o":"m 223 730 l 259 915 l 840 915 l 804 730 l 223 730 m 162 416 l 198 600 l 779 600 l 743 416 l 162 416 z "},">":{"ha":744,"x_min":128,"x_max":812,"o":"m 770 555 l 128 240 l 171 459 l 595 663 l 251 873 l 294 1092 l 812 766 l 770 555 z "},"?":{"ha":748,"x_min":157,"x_max":884,"o":"m 205 234 l 460 234 l 412 -14 l 157 -14 l 205 234 m 849 939 q 648 626 815 765 q 475 401 493 496 l 466 357 l 240 357 l 252 418 q 452 727 286 589 q 624 943 607 856 l 649 1072 q 598 1149 664 1149 l 597 1149 q 515 1072 530 1149 l 478 880 l 252 880 l 290 1072 q 640 1366 347 1366 q 884 1160 884 1366 q 875 1072 884 1120 l 849 939 z "},"@":{"ha":1040,"x_min":154,"x_max":1150,"o":"m 1120 870 l 1112 830 q 876 632 1074 632 l 819 632 l 776 412 q 538 214 737 214 q 379 412 340 214 l 413 587 q 649 784 451 784 l 688 784 l 720 948 q 690 994 728 994 l 689 994 q 643 948 652 994 l 631 887 l 471 887 l 483 948 q 720 1145 522 1145 q 880 948 918 1145 l 848 784 l 905 784 q 952 830 943 784 l 977 956 q 758 1222 1028 1222 q 433 947 486 1222 l 328 404 q 547 138 275 138 q 871 412 817 138 l 879 455 l 1040 455 l 1031 412 q 517 -13 949 -13 q 154 282 154 -13 q 167 404 154 338 l 272 947 q 787 1373 355 1373 q 1150 1078 1150 1373 q 1137 956 1150 1022 l 1120 870 l 1120 870 m 609 633 q 562 587 571 633 l 528 412 q 557 366 519 366 q 605 412 596 366 l 648 632 l 609 633 z "},"A":{"ha":751,"x_min":24,"x_max":783,"o":"m 751 473 l 721 -14 l 493 -14 l 511 269 l 345 269 l 252 -14 l 24 -14 l 183 471 l 490 1344 l 783 1344 l 751 473 m 524 486 l 549 897 l 415 486 l 524 486 z "},"B":{"ha":741,"x_min":85,"x_max":888,"o":"m 349 1344 l 662 1344 q 888 1143 888 1343 q 878 1050 888 1101 l 839 850 q 712 665 812 712 q 767 480 793 618 l 728 279 q 387 -14 671 -13 l 85 -14 l 349 1344 m 533 1128 l 465 774 l 508 774 q 556 778 545 774 q 613 850 602 795 l 652 1050 q 600 1128 667 1128 l 533 1128 m 422 557 l 353 203 l 420 203 q 502 279 487 203 l 541 480 q 512 552 551 536 q 465 557 501 557 l 422 557 z "},"C":{"ha":728,"x_min":115,"x_max":878,"o":"m 710 258 q 360 -35 653 -35 q 115 170 115 -35 q 125 258 115 210 l 283 1072 q 632 1365 340 1365 q 878 1160 878 1365 q 868 1072 878 1120 l 831 880 l 605 880 l 642 1072 q 591 1149 657 1148 l 589 1149 q 509 1072 524 1149 l 351 258 q 402 182 336 182 q 484 258 469 182 l 522 451 l 747 451 l 710 258 z "},"D":{"ha":748,"x_min":85,"x_max":888,"o":"m 349 1344 l 662 1344 q 888 1143 888 1343 q 878 1050 888 1101 l 728 279 q 387 -14 671 -13 l 85 -14 l 349 1344 m 533 1128 l 353 203 l 420 203 q 502 279 487 203 l 652 1050 q 600 1128 667 1128 l 533 1128 z "},"E":{"ha":674,"x_min":85,"x_max":881,"o":"m 349 1344 l 881 1344 l 839 1128 l 533 1128 l 465 774 l 728 774 l 685 557 l 422 557 l 353 203 l 659 203 l 617 -14 l 85 -14 l 349 1344 z "},"F":{"ha":661,"x_min":85,"x_max":881,"o":"m 349 1344 l 881 1344 l 839 1128 l 533 1128 l 465 774 l 728 774 l 685 557 l 422 557 l 311 -14 l 85 -14 l 349 1344 z "},"G":{"ha":734,"x_min":115,"x_max":878,"o":"m 526 774 l 810 774 l 710 258 q 360 -35 653 -35 q 115 170 115 -35 q 125 258 115 210 l 283 1072 q 632 1365 340 1365 q 878 1160 878 1365 q 868 1072 878 1120 l 831 880 l 605 880 l 642 1072 q 591 1149 657 1148 l 589 1149 q 509 1072 524 1149 l 351 258 q 402 182 336 182 q 484 258 469 182 l 543 557 l 484 557 l 526 774 z "},"H":{"ha":762,"x_min":85,"x_max":935,"o":"m 349 1344 l 575 1344 l 465 774 l 598 774 l 709 1344 l 935 1344 l 671 -14 l 445 -14 l 555 557 l 422 557 l 311 -14 l 85 -14 l 349 1344 z "},"I":{"ha":409,"x_min":89,"x_max":578,"o":"m 353 1344 l 578 1344 l 315 -14 l 89 -14 l 353 1344 z "},"J":{"ha":694,"x_min":61,"x_max":867,"o":"m 88 351 l 314 351 l 296 258 q 349 182 281 182 q 430 258 415 182 l 641 1344 l 867 1344 l 656 258 q 307 -35 599 -35 q 61 171 61 -35 q 71 258 61 211 l 88 351 z "},"K":{"ha":757,"x_min":85,"x_max":991,"o":"m 600 665 l 727 -14 l 486 -14 l 416 528 l 311 -14 l 85 -14 l 349 1344 l 575 1344 l 471 805 l 749 1344 l 991 1344 l 600 665 z "},"L":{"ha":647,"x_min":85,"x_max":659,"o":"m 85 -14 l 349 1344 l 575 1344 l 353 203 l 659 203 l 617 -14 l 85 -14 z "},"M":{"ha":1043,"x_min":85,"x_max":1216,"o":"m 609 444 l 993 1344 l 1216 1344 l 952 -14 l 734 -14 l 856 611 l 602 -14 l 443 -14 l 427 615 l 305 -14 l 85 -14 l 349 1344 l 572 1344 l 609 444 z "},"N":{"ha":762,"x_min":85,"x_max":935,"o":"m 349 1344 l 572 1344 l 593 675 l 723 1344 l 935 1344 l 671 -14 l 448 -14 l 430 637 l 304 -14 l 85 -14 l 349 1344 z "},"O":{"ha":734,"x_min":115,"x_max":878,"o":"m 710 258 q 360 -35 653 -35 q 115 170 115 -35 q 125 258 115 210 l 283 1072 q 632 1365 340 1365 q 878 1160 878 1365 q 868 1072 878 1120 l 710 258 m 642 1072 q 591 1149 657 1148 l 589 1149 q 509 1072 524 1149 l 351 258 q 402 182 336 182 q 484 258 469 182 l 642 1072 z "},"P":{"ha":711,"x_min":85,"x_max":871,"o":"m 349 1344 l 646 1344 q 871 1143 871 1343 q 861 1050 871 1101 l 823 850 q 574 572 781 635 q 436 557 524 557 l 422 557 l 311 -14 l 85 -14 l 349 1344 m 533 1128 l 465 774 l 492 774 q 540 778 528 774 q 597 850 586 795 l 635 1050 q 584 1128 650 1128 l 533 1128 z "},"Q":{"ha":734,"x_min":115,"x_max":878,"o":"m 710 258 q 445 -29 659 -3 q 650 -49 443 -47 l 614 -236 q 361 -201 422 -236 q 301 -32 279 -155 q 115 165 115 -18 q 125 258 115 207 l 283 1072 q 633 1365 340 1365 q 878 1160 878 1365 q 869 1072 878 1120 l 710 258 m 643 1072 q 591 1149 657 1148 l 590 1149 q 509 1072 524 1149 l 351 258 q 402 182 336 182 q 484 258 469 182 l 643 1072 z "},"R":{"ha":747,"x_min":85,"x_max":871,"o":"m 349 1344 l 646 1344 q 871 1143 871 1343 q 861 1050 871 1101 l 823 850 q 628 612 787 666 l 724 -14 l 478 -14 l 437 570 l 425 570 l 311 -14 l 85 -14 l 349 1344 m 533 1128 l 465 774 l 492 774 q 540 778 528 774 q 597 850 586 795 l 635 1050 q 584 1128 650 1128 l 533 1128 z "},"S":{"ha":734,"x_min":115,"x_max":878,"o":"m 283 1072 q 632 1365 340 1365 q 878 1160 878 1365 q 868 1072 878 1120 l 831 880 l 605 880 l 642 1072 q 591 1149 657 1148 l 589 1149 q 509 1072 524 1149 l 486 951 q 618 744 469 869 q 743 427 779 612 l 710 258 q 361 -35 653 -35 q 115 171 115 -35 q 125 258 115 211 l 162 451 l 388 451 l 351 258 q 403 182 336 182 q 484 258 469 182 l 514 410 q 382 625 531 500 q 258 947 222 758 l 283 1072 z "},"T":{"ha":653,"x_min":211,"x_max":880,"o":"m 880 1344 l 838 1128 l 659 1128 l 437 -14 l 211 -14 l 433 1128 l 253 1128 l 295 1344 l 880 1344 z "},"U":{"ha":748,"x_min":122,"x_max":928,"o":"m 717 258 q 367 -35 660 -35 q 122 170 122 -35 q 132 258 122 210 l 342 1344 l 568 1344 l 357 258 q 409 182 342 182 q 491 258 476 182 l 702 1344 l 928 1344 l 717 258 z "},"V":{"ha":751,"x_min":227,"x_max":985,"o":"m 519 -14 l 227 -14 l 258 859 l 288 1344 l 516 1344 l 429 280 l 757 1344 l 985 1344 l 826 857 l 519 -14 z "},"W":{"ha":1213,"x_min":227,"x_max":1447,"o":"m 904 345 l 1219 1344 l 1447 1344 l 1288 857 l 981 -14 l 688 -14 l 747 722 l 519 -14 l 227 -14 l 258 859 l 288 1344 l 515 1344 l 442 345 l 757 1344 l 977 1344 l 904 345 z "},"X":{"ha":734,"x_min":24,"x_max":967,"o":"m 516 1344 l 553 955 l 739 1344 l 967 1344 l 610 665 l 703 -14 l 475 -14 l 448 418 l 252 -14 l 24 -14 l 382 665 l 288 1344 l 516 1344 z "},"Y":{"ha":766,"x_min":268,"x_max":1000,"o":"m 527 1344 l 543 820 l 762 1344 l 1000 1344 l 612 572 l 605 558 l 494 -14 l 268 -14 l 379 557 l 376 572 l 288 1344 l 527 1344 z "},"Z":{"ha":631,"x_min":52,"x_max":826,"o":"m 801 1214 l 348 203 l 616 203 l 574 -14 l 52 -14 l 77 117 l 530 1128 l 282 1128 l 324 1344 l 826 1344 l 801 1214 z "},"[":{"ha":405,"x_min":53,"x_max":678,"o":"m 678 1512 l 642 1328 l 538 1328 l 281 4 l 385 4 l 349 -181 l 53 -181 l 382 1512 l 678 1512 z "},"\\":{"ha":547,"x_min":302,"x_max":503,"o":"m 496 1345 l 503 -14 l 309 -14 l 302 1345 l 496 1345 z "},"]":{"ha":405,"x_min":-15,"x_max":610,"o":"m 610 1512 l 281 -181 l -15 -181 l 21 4 l 125 4 l 382 1328 l 278 1328 l 314 1512 l 610 1512 z "},"^":{"ha":832,"x_min":220,"x_max":916,"o":"m 779 1356 l 916 781 l 708 781 l 631 1104 l 428 781 l 220 781 l 581 1356 l 779 1356 z "},"_":{"ha":734,"x_min":-45,"x_max":722,"o":"m -45 -229 l -12 -59 l 722 -59 l 689 -229 l -45 -229 z "},"`":{"ha":567,"x_min":349,"x_max":714,"o":"m 362 1409 l 537 1409 l 714 1211 l 520 1211 l 349 1338 l 362 1409 z "},"a":{"ha":751,"x_min":24,"x_max":751,"o":"m 740 415 l 721 -14 l 493 -14 l 504 235 l 338 235 l 252 -14 l 24 -14 l 172 413 l 458 1181 l 751 1181 l 740 415 m 512 426 l 528 787 l 404 426 l 512 426 z "},"b":{"ha":741,"x_min":85,"x_max":861,"o":"m 317 1181 l 630 1181 q 861 997 861 1181 q 852 923 861 963 l 819 747 q 696 584 795 625 q 755 421 779 543 l 721 244 q 387 -14 671 -13 l 85 -14 l 317 1181 m 507 991 l 446 680 l 490 680 q 538 683 526 680 q 593 747 583 698 l 627 923 q 574 991 640 991 l 507 991 m 409 488 l 349 177 l 416 177 q 495 244 482 177 l 530 421 q 499 484 539 470 q 452 488 488 488 l 409 488 z "},"c":{"ha":728,"x_min":111,"x_max":850,"o":"m 703 223 q 360 -35 653 -35 q 111 153 111 -35 q 118 223 111 185 l 257 939 q 600 1197 307 1197 q 850 1009 850 1197 q 842 939 850 977 l 810 770 l 584 770 l 616 939 q 564 1007 630 1006 l 562 1007 q 483 939 496 1007 l 344 223 q 397 156 331 156 q 477 223 465 156 l 511 393 l 736 393 l 703 223 z "},"d":{"ha":748,"x_min":85,"x_max":861,"o":"m 317 1181 l 630 1181 q 861 997 861 1181 q 852 923 861 963 l 721 244 q 387 -14 671 -13 l 85 -14 l 317 1181 m 507 991 l 349 177 l 416 177 q 495 244 482 177 l 627 923 q 574 991 640 991 l 507 991 z "},"e":{"ha":674,"x_min":85,"x_max":849,"o":"m 317 1181 l 849 1181 l 812 991 l 507 991 l 446 680 l 709 680 l 672 488 l 409 488 l 349 177 l 654 177 l 617 -14 l 85 -14 l 317 1181 z "},"f":{"ha":661,"x_min":85,"x_max":849,"o":"m 317 1181 l 849 1181 l 812 991 l 507 991 l 446 680 l 709 680 l 672 488 l 409 488 l 311 -14 l 85 -14 l 317 1181 z "},"g":{"ha":734,"x_min":111,"x_max":850,"o":"m 509 677 l 791 677 l 703 223 q 360 -35 653 -35 q 111 153 111 -35 q 118 223 111 185 l 257 939 q 600 1197 307 1197 q 850 1009 850 1197 q 842 939 850 977 l 810 770 l 584 770 l 616 939 q 564 1007 630 1006 l 562 1007 q 483 939 496 1007 l 344 223 q 397 156 331 156 q 477 223 465 156 l 528 486 l 472 486 l 509 677 z "},"h":{"ha":762,"x_min":85,"x_max":903,"o":"m 317 1181 l 543 1181 l 446 680 l 580 680 l 677 1181 l 903 1181 l 671 -14 l 445 -14 l 543 488 l 409 488 l 311 -14 l 85 -14 l 317 1181 z "},"i":{"ha":409,"x_min":89,"x_max":547,"o":"m 321 1181 l 547 1181 l 315 -14 l 89 -14 l 321 1181 z "},"j":{"ha":694,"x_min":56,"x_max":835,"o":"m 79 304 l 305 304 l 290 223 q 344 156 277 156 q 423 223 410 156 l 609 1179 l 835 1179 l 649 223 q 307 -35 599 -35 q 56 153 56 -35 q 64 223 56 185 l 79 304 z "},"k":{"ha":757,"x_min":85,"x_max":959,"o":"m 584 584 l 727 -14 l 486 -14 l 398 431 l 311 -14 l 85 -14 l 317 1181 l 543 1181 l 457 736 l 718 1181 l 959 1181 l 584 584 z "},"l":{"ha":647,"x_min":85,"x_max":654,"o":"m 85 -14 l 317 1181 l 543 1181 l 349 177 l 654 177 l 617 -14 l 85 -14 z "},"m":{"ha":1043,"x_min":85,"x_max":1184,"o":"m 598 389 l 961 1181 l 1184 1181 l 952 -14 l 734 -14 l 842 536 l 602 -14 l 443 -14 l 413 540 l 305 -14 l 85 -14 l 317 1181 l 541 1181 l 598 389 z "},"n":{"ha":762,"x_min":85,"x_max":903,"o":"m 317 1181 l 541 1181 l 577 593 l 691 1181 l 903 1181 l 671 -14 l 448 -14 l 415 559 l 304 -14 l 85 -14 l 317 1181 z "},"o":{"ha":734,"x_min":111,"x_max":850,"o":"m 703 223 q 360 -35 653 -35 q 111 153 111 -35 q 118 223 111 185 l 257 939 q 600 1197 307 1197 q 850 1009 850 1197 q 842 939 850 977 l 703 223 m 616 939 q 564 1007 630 1006 l 562 1007 q 483 939 496 1007 l 344 223 q 397 156 331 156 q 477 223 465 156 l 616 939 z "},"p":{"ha":711,"x_min":85,"x_max":844,"o":"m 317 1181 l 614 1181 q 844 997 844 1181 q 836 923 844 963 l 802 747 q 560 502 766 557 q 423 488 511 488 l 409 488 l 311 -14 l 85 -14 l 317 1181 m 507 991 l 446 680 l 473 680 q 522 683 510 680 q 576 747 567 698 l 610 923 q 557 991 624 991 l 507 991 z "},"q":{"ha":734,"x_min":105,"x_max":845,"o":"m 699 199 q 439 -54 654 -31 q 646 -71 438 -70 l 614 -236 q 360 -205 422 -236 q 296 -56 277 -164 q 105 124 105 -44 q 113 199 105 159 l 252 916 q 595 1173 302 1173 q 845 985 845 1173 q 838 916 845 954 l 699 199 m 612 916 q 559 983 625 982 l 557 983 q 478 916 492 983 l 339 199 q 393 132 326 132 q 473 199 460 132 l 612 916 z "},"r":{"ha":747,"x_min":85,"x_max":844,"o":"m 317 1181 l 614 1181 q 844 997 844 1181 q 836 923 844 963 l 802 747 q 614 536 770 585 l 724 -14 l 478 -14 l 423 500 l 411 500 l 311 -14 l 85 -14 l 317 1181 m 507 991 l 446 680 l 473 680 q 522 683 510 680 q 576 747 567 698 l 610 923 q 557 991 624 991 l 507 991 z "},"s":{"ha":734,"x_min":111,"x_max":850,"o":"m 257 939 q 600 1197 307 1197 q 850 1009 850 1197 q 842 939 850 977 l 810 770 l 584 770 l 616 939 q 564 1007 629 1006 l 562 1007 q 483 939 496 1007 l 463 833 q 600 650 448 760 q 732 371 764 534 l 703 223 q 361 -35 653 -35 q 111 153 111 -35 q 118 223 111 185 l 151 393 l 376 393 l 344 223 q 398 156 331 156 q 477 223 465 156 l 503 357 q 366 546 519 436 q 236 829 203 663 l 257 939 z "},"t":{"ha":653,"x_min":211,"x_max":848,"o":"m 848 1181 l 812 991 l 632 991 l 437 -14 l 211 -14 l 406 991 l 227 991 l 263 1181 l 848 1181 z "},"u":{"ha":748,"x_min":117,"x_max":896,"o":"m 710 223 q 367 -35 660 -35 q 117 153 117 -35 q 125 223 117 185 l 311 1179 l 536 1179 l 351 223 q 404 156 338 156 q 484 223 471 156 l 670 1179 l 896 1179 l 710 223 z "},"v":{"ha":751,"x_min":227,"x_max":953,"o":"m 519 -14 l 227 -14 l 238 754 l 256 1181 l 484 1181 l 422 245 l 725 1181 l 953 1181 l 806 753 l 519 -14 z "},"w":{"ha":1213,"x_min":227,"x_max":1415,"o":"m 896 302 l 1187 1181 l 1415 1181 l 1267 753 l 981 -14 l 688 -14 l 729 633 l 519 -14 l 227 -14 l 238 754 l 256 1181 l 484 1181 l 434 302 l 725 1181 l 945 1181 l 896 302 z "},"x":{"ha":734,"x_min":24,"x_max":935,"o":"m 484 1181 l 530 839 l 707 1181 l 935 1181 l 594 584 l 703 -14 l 475 -14 l 438 366 l 252 -14 l 24 -14 l 366 584 l 256 1181 l 484 1181 z "},"y":{"ha":766,"x_min":257,"x_max":969,"o":"m 496 1181 l 524 720 l 730 1181 l 969 1181 l 599 502 l 592 490 l 494 -14 l 269 -14 l 366 489 l 363 502 l 257 1181 l 496 1181 z "},"z":{"ha":631,"x_min":52,"x_max":794,"o":"m 772 1067 l 343 177 l 611 177 l 574 -14 l 52 -14 l 74 101 l 503 991 l 256 991 l 292 1181 l 794 1181 l 772 1067 z "},"{":{"ha":404,"x_min":95,"x_max":677,"o":"m 348 -181 q 95 28 95 -178 q 104 113 95 66 l 178 496 q 118 573 193 572 l 154 758 q 244 835 230 760 l 319 1219 q 677 1512 375 1509 l 642 1329 q 551 1251 566 1326 l 476 867 q 387 666 449 728 q 398 465 425 604 l 323 81 q 384 3 309 5 l 348 -181 z "},"|":{"ha":381,"x_min":50,"x_max":591,"o":"m 399 1567 l 591 1567 l 241 -235 l 50 -235 l 399 1567 z "},"}":{"ha":404,"x_min":-15,"x_max":567,"o":"m 21 3 q 111 81 96 5 l 186 465 q 275 666 213 604 q 264 867 237 728 l 338 1251 q 279 1329 353 1326 l 314 1512 q 567 1303 567 1510 q 558 1219 567 1265 l 484 835 q 544 758 469 760 l 508 573 q 418 496 433 572 l 343 113 q -15 -181 287 -178 l 21 3 z "},"~":{"ha":789,"x_min":191,"x_max":853,"o":"m 314 543 l 191 634 l 247 700 q 441 812 340 812 l 448 812 q 595 737 513 809 q 654 705 631 705 q 676 715 666 705 l 743 783 l 853 679 l 791 616 q 623 533 709 533 l 614 533 q 467 608 549 536 q 417 648 424 646 l 415 648 q 374 614 402 648 l 314 543 z "},"¡":{"ha":383,"x_min":-180,"x_max":338,"o":"m -180 -172 l 28 827 l 254 827 l 75 -172 l -180 -172 m 290 939 l 36 939 l 84 1186 l 338 1186 l 290 939 z "},"¢":{"ha":770,"x_min":37,"x_max":947,"o":"m 414 526 l 631 960 q 575 1011 635 1010 q 495 945 508 1011 l 414 526 m 368 171 q 410 162 376 162 q 490 228 477 162 l 523 399 l 749 399 l 715 228 q 372 -32 665 -32 q 271 -22 304 -32 l 164 -236 l 37 -228 l 167 33 q 130 228 104 92 l 269 945 q 612 1205 320 1205 q 743 1187 703 1205 l 820 1338 l 947 1330 l 838 1113 q 854 945 876 1054 l 821 774 l 669 774 l 368 171 z "},"£":{"ha":798,"x_min":38,"x_max":975,"o":"m 515 609 l 470 374 q 406 203 446 251 l 743 203 l 701 -14 l 38 -14 l 80 203 l 144 203 q 226 280 211 203 l 290 609 l 159 609 l 185 743 l 316 743 l 380 1072 q 729 1366 437 1366 q 975 1160 975 1366 q 965 1072 975 1120 l 928 880 l 702 880 l 739 1072 q 688 1149 754 1149 l 686 1149 q 606 1072 621 1149 l 542 743 l 766 743 l 740 609 l 515 609 z "},"¤":{"ha":991,"x_min":164,"x_max":1084,"o":"m 901 575 q 884 507 893 536 l 979 389 l 816 252 l 755 328 q 551 282 688 282 q 366 328 414 282 l 275 252 l 164 389 l 306 507 q 315 575 308 535 l 351 756 q 363 812 357 789 l 269 930 l 433 1067 l 489 998 q 700 1050 555 1050 q 892 998 844 1050 l 974 1067 l 1084 930 l 944 812 q 936 756 943 789 l 901 575 m 710 756 q 659 833 725 832 l 657 833 q 576 756 591 833 l 541 575 q 593 498 526 498 q 675 575 660 498 l 710 756 z "},"¥":{"ha":848,"x_min":197,"x_max":1041,"o":"m 405 675 l 329 1344 l 568 1344 l 595 881 l 802 1344 l 1041 1344 l 705 675 l 846 675 l 820 541 l 642 541 l 627 460 l 804 460 l 778 326 l 600 326 l 534 -14 l 309 -14 l 374 326 l 197 326 l 223 460 l 401 460 l 416 541 l 239 541 l 264 675 l 405 675 z "},"¦":{"ha":381,"x_min":92,"x_max":517,"o":"m 326 1186 l 517 1186 l 414 655 l 222 655 l 326 1186 m 201 545 l 392 545 l 283 -14 l 92 -14 l 201 545 z "},"§":{"ha":748,"x_min":96,"x_max":874,"o":"m 674 36 q 330 -235 621 -235 q 96 -43 96 -235 q 104 36 96 -7 l 121 121 l 347 121 l 330 36 q 376 -34 317 -34 q 448 36 434 -34 q 319 264 471 159 q 201 616 155 376 q 361 854 239 809 q 298 1111 262 930 q 637 1366 347 1366 q 874 1182 874 1366 q 867 1111 874 1149 l 851 1029 l 625 1029 l 641 1111 q 594 1175 653 1175 q 524 1111 536 1175 q 653 899 501 996 q 777 567 821 792 q 587 331 738 363 q 674 36 714 243 m 562 608 q 505 692 578 691 l 503 692 q 414 608 431 692 l 409 580 q 466 496 393 496 q 556 580 540 496 l 562 608 z "},"¨":{"ha":644,"x_min":323,"x_max":828,"o":"m 361 1402 l 559 1402 l 522 1211 l 323 1211 l 361 1402 m 629 1402 l 828 1402 l 791 1211 l 592 1211 l 629 1402 z "},"©":{"ha":1026,"x_min":147,"x_max":1143,"o":"m 1025 412 q 510 -13 942 -13 q 147 282 147 -13 q 160 404 147 338 l 265 947 q 779 1373 348 1373 q 1143 1077 1143 1373 q 1131 956 1143 1022 l 1025 412 m 983 967 q 755 1244 1036 1244 q 417 958 473 1244 l 307 393 q 535 117 254 117 q 873 401 817 117 l 983 967 m 801 446 q 562 245 762 245 q 400 446 361 245 l 486 887 q 725 1086 525 1086 q 887 887 926 1086 l 874 821 l 712 821 l 725 887 q 696 934 734 933 q 648 887 656 934 l 562 446 q 591 399 553 399 q 639 446 630 399 l 652 511 l 814 511 l 801 446 z "},"ª":{"ha":555,"x_min":114,"x_max":642,"o":"m 642 879 l 634 614 l 471 614 l 475 764 l 376 764 l 322 614 l 160 614 l 255 878 l 438 1344 l 640 1344 l 642 879 m 479 890 l 484 1065 l 421 890 l 479 890 m 114 340 l 144 498 l 598 498 l 568 340 l 114 340 z "},"«":{"ha":885,"x_min":220,"x_max":1042,"o":"m 659 794 l 489 671 l 612 551 l 562 292 l 220 680 l 711 1059 l 659 794 m 991 794 l 821 671 l 943 551 l 893 292 l 552 680 l 1042 1059 l 991 794 z "},"¬":{"ha":758,"x_min":199,"x_max":817,"o":"m 199 573 l 235 758 l 817 758 l 743 378 l 551 378 l 589 573 l 199 573 z "},"®":{"ha":1026,"x_min":147,"x_max":1143,"o":"m 1025 412 q 510 -13 942 -13 q 147 282 147 -13 q 160 404 147 338 l 265 947 q 779 1373 348 1373 q 1143 1077 1143 1373 q 1131 956 1143 1022 l 1025 412 m 983 967 q 755 1244 1036 1244 q 417 958 473 1244 l 307 393 q 535 117 254 117 q 873 401 817 117 l 983 967 m 540 1078 l 732 1078 q 876 911 908 1078 l 853 797 q 731 661 833 692 l 803 304 l 644 304 l 608 637 l 600 637 l 535 304 l 389 304 l 540 1078 m 661 955 l 623 753 l 640 753 q 671 755 664 753 q 707 797 701 765 l 729 911 q 694 955 737 955 l 661 955 z "},"¯":{"ha":853,"x_min":229,"x_max":1115,"o":"m 229 1175 l 262 1345 l 1115 1345 l 1082 1175 l 229 1175 z "},"°":{"ha":629,"x_min":311,"x_max":777,"o":"m 587 1403 q 777 1246 777 1403 q 770 1181 777 1217 q 500 958 726 958 q 311 1115 311 958 q 317 1181 311 1145 q 587 1403 361 1403 m 557 1252 q 475 1181 489 1252 q 529 1109 461 1109 q 612 1181 597 1109 q 557 1252 625 1252 z "},"±":{"ha":744,"x_min":100,"x_max":810,"o":"m 388 573 l 193 573 l 229 758 l 424 758 l 462 953 l 653 953 l 615 758 l 810 758 l 774 573 l 579 573 l 541 378 l 350 378 l 388 573 m 713 266 l 680 95 l 100 95 l 133 266 l 713 266 z "},"²":{"ha":491,"x_min":175,"x_max":660,"o":"m 210 730 q 357 920 231 841 q 479 1037 469 991 l 509 1189 q 485 1228 516 1228 l 484 1228 q 445 1189 452 1228 l 422 1072 l 276 1072 l 299 1189 q 511 1366 334 1366 q 660 1242 660 1366 q 654 1189 660 1218 l 625 1034 q 476 842 602 921 q 354 721 363 771 l 347 688 l 557 688 l 530 550 l 175 550 l 210 730 z "},"³":{"ha":494,"x_min":200,"x_max":665,"o":"m 447 855 q 446 894 454 890 q 425 897 440 897 l 369 897 l 396 1035 l 460 1035 q 474 1037 471 1035 q 490 1074 484 1042 l 512 1191 q 511 1230 519 1226 q 488 1232 505 1232 q 478 1232 484 1232 q 445 1191 453 1231 l 422 1073 l 277 1073 l 300 1192 q 404 1351 323 1313 q 513 1377 460 1377 q 608 1354 562 1377 q 665 1249 665 1328 q 659 1192 665 1223 l 635 1074 q 567 964 619 989 q 593 855 610 940 l 565 713 q 477 563 544 604 q 357 534 435 536 l 347 534 q 245 557 279 534 q 200 656 200 586 q 206 713 200 682 l 229 831 l 375 831 l 352 712 q 378 671 345 671 q 419 712 412 671 l 447 855 z "},"´":{"ha":567,"x_min":323,"x_max":753,"o":"m 739 1338 l 517 1211 l 323 1211 l 578 1409 l 753 1409 l 739 1338 z "},"µ":{"ha":755,"x_min":43,"x_max":892,"o":"m 364 258 q 416 182 350 182 q 498 258 484 182 l 666 1122 l 892 1122 l 724 258 q 436 -32 673 -6 q 409 -33 422 -33 q 312 -12 340 -33 l 269 -235 l 43 -235 l 307 1122 l 532 1122 l 364 258 z "},"¶":{"ha":827,"x_min":231,"x_max":1001,"o":"m 1001 1345 l 737 -14 l 567 -14 l 799 1181 l 682 1181 l 450 -14 l 279 -14 l 414 679 q 258 709 292 679 q 231 797 231 734 q 241 888 231 836 l 288 1128 q 376 1311 315 1269 q 560 1345 425 1345 l 1001 1345 z "},"·":{"ha":345,"x_min":79,"x_max":336,"o":"m 120 771 l 336 771 l 295 560 l 79 560 l 120 771 z "},"¸":{"ha":466,"x_min":86,"x_max":325,"o":"m 245 -26 q 243 -28 243 -28 q 262 -31 243 -31 q 309 -48 290 -31 q 325 -86 325 -61 q 323 -106 325 -96 l 309 -173 q 210 -250 296 -243 q 184 -251 199 -251 q 170 -250 177 -251 q 86 -191 86 -248 q 88 -173 86 -182 l 95 -140 q 181 -170 150 -170 q 222 -136 215 -170 l 222 -134 q 142 -79 233 -79 q 111 -80 127 -79 l 149 14 l 268 14 l 245 -26 z "},"¹":{"ha":762,"x_min":195,"x_max":597,"o":"m 597 1344 l 469 686 l 573 686 l 547 549 l 195 549 l 221 686 l 325 686 l 427 1208 l 323 1208 l 349 1344 l 597 1344 z "},"º":{"ha":561,"x_min":152,"x_max":713,"o":"m 625 753 q 395 591 594 591 q 227 753 196 591 l 311 1183 q 541 1344 342 1344 q 713 1223 713 1344 q 709 1183 713 1204 l 625 753 m 549 1183 q 517 1217 555 1217 q 472 1183 478 1217 l 388 753 q 419 718 381 718 q 465 753 458 718 l 549 1183 m 152 330 l 180 475 l 564 475 l 536 330 l 152 330 z "},"»":{"ha":885,"x_min":145,"x_max":968,"o":"m 294 1059 l 637 680 l 145 292 l 195 551 l 364 671 l 243 794 l 294 1059 m 626 1059 l 968 680 l 477 292 l 527 551 l 696 671 l 574 794 l 626 1059 z "},"¼":{"ha":1125,"x_min":188,"x_max":1207,"o":"m 1165 777 l 1074 309 l 1117 309 l 1090 174 l 1048 174 l 1012 -14 l 868 -14 l 904 174 l 681 174 l 703 286 l 996 777 l 1165 777 m 856 309 l 930 309 l 967 498 l 856 309 m 1207 1345 l 444 -14 l 290 -14 l 1053 1345 l 1207 1345 m 591 1344 l 463 686 l 566 686 l 540 549 l 188 549 l 214 686 l 318 686 l 420 1208 l 316 1208 l 342 1344 l 591 1344 z "},"½":{"ha":1177,"x_min":147,"x_max":1236,"o":"m 1166 1345 l 404 -14 l 249 -14 l 1013 1345 l 1166 1345 m 550 1344 l 422 686 l 526 686 l 499 549 l 147 549 l 174 686 l 277 686 l 379 1208 l 275 1208 l 302 1344 l 550 1344 m 785 167 q 933 357 807 277 q 1055 473 1045 427 l 1084 625 q 1061 665 1092 665 l 1060 665 q 1021 625 1028 665 l 998 508 l 852 508 l 875 625 q 1087 802 909 802 q 1236 678 1236 802 q 1230 625 1236 654 l 1200 471 q 1051 278 1178 357 q 930 157 939 208 l 923 124 l 1133 124 l 1106 -14 l 751 -14 l 785 167 z "},"¾":{"ha":1084,"x_min":200,"x_max":1167,"o":"m 1125 777 l 1034 309 l 1077 309 l 1050 174 l 1008 174 l 971 -14 l 827 -14 l 864 174 l 641 174 l 663 286 l 956 777 l 1125 777 m 816 309 l 890 309 l 927 498 l 816 309 m 1167 1345 l 404 -14 l 249 -14 l 1013 1345 l 1167 1345 m 447 855 q 446 894 454 890 q 425 897 440 897 l 369 897 l 396 1035 l 460 1035 q 474 1037 471 1035 q 490 1074 484 1042 l 512 1191 q 511 1230 519 1226 q 488 1232 505 1232 q 478 1232 484 1232 q 445 1191 453 1231 l 422 1073 l 277 1073 l 300 1192 q 404 1351 323 1313 q 513 1377 460 1377 q 608 1354 562 1377 q 659 1192 683 1319 l 635 1074 q 567 964 619 989 q 593 855 610 940 l 565 713 q 477 563 544 604 q 357 534 435 536 l 347 534 q 245 557 279 534 q 200 656 200 586 q 206 713 200 682 l 229 831 l 375 831 l 352 712 q 378 671 345 671 q 419 712 412 671 l 447 855 z "},"¿":{"ha":714,"x_min":-136,"x_max":591,"o":"m 543 939 l 288 939 l 336 1186 l 591 1186 l 543 939 m -101 234 q 100 547 -67 408 q 273 771 255 676 l 282 815 l 508 815 l 496 755 q 296 446 463 584 q 124 229 141 317 l 99 100 q 150 24 84 24 l 151 24 q 233 100 218 24 l 270 292 l 496 292 l 458 100 q 109 -193 401 -193 q -136 12 -136 -193 q -127 100 -136 52 l -101 234 z "},"À":{"ha":740,"x_min":38,"x_max":797,"o":"m 765 473 l 734 -14 l 507 -14 l 524 269 l 358 269 l 265 -14 l 38 -14 l 197 471 l 504 1344 l 797 1344 l 765 473 m 537 486 l 563 897 l 429 486 l 537 486 m 421 1567 l 596 1567 l 773 1369 l 579 1369 l 408 1496 l 421 1567 z "},"Á":{"ha":740,"x_min":38,"x_max":904,"o":"m 765 473 l 734 -14 l 507 -14 l 524 269 l 358 269 l 265 -14 l 38 -14 l 197 471 l 504 1344 l 797 1344 l 765 473 m 537 486 l 563 897 l 429 486 l 537 486 m 890 1496 l 669 1369 l 475 1369 l 729 1567 l 904 1567 l 890 1496 z "},"Â":{"ha":740,"x_min":38,"x_max":924,"o":"m 765 473 l 734 -14 l 507 -14 l 524 269 l 358 269 l 265 -14 l 38 -14 l 197 471 l 504 1344 l 797 1344 l 765 473 m 537 486 l 563 897 l 429 486 l 537 486 m 326 1369 l 565 1567 l 760 1567 l 924 1369 l 710 1369 l 635 1428 l 538 1369 l 326 1369 z "},"Ã":{"ha":740,"x_min":38,"x_max":933,"o":"m 765 473 l 734 -14 l 507 -14 l 524 269 l 358 269 l 265 -14 l 38 -14 l 197 471 l 504 1344 l 797 1344 l 765 473 m 537 486 l 563 897 l 429 486 l 537 486 m 498 1350 l 408 1404 l 448 1463 q 602 1567 517 1563 l 607 1567 q 725 1520 658 1567 q 768 1501 751 1501 q 784 1509 777 1501 l 833 1569 l 933 1493 l 888 1438 q 751 1358 826 1362 l 746 1358 q 629 1405 695 1358 q 589 1432 593 1431 l 588 1432 q 498 1350 581 1432 z "},"Ä":{"ha":740,"x_min":38,"x_max":895,"o":"m 765 473 l 734 -14 l 507 -14 l 524 269 l 358 269 l 265 -14 l 38 -14 l 197 471 l 504 1344 l 797 1344 l 765 473 m 537 486 l 563 897 l 429 486 l 537 486 m 428 1560 l 626 1560 l 589 1369 l 391 1369 l 428 1560 m 696 1560 l 895 1560 l 858 1369 l 659 1369 l 696 1560 z "},"Å":{"ha":778,"x_min":38,"x_max":821,"o":"m 537 486 l 563 897 l 429 486 l 537 486 m 673 1461 q 627 1420 635 1461 q 656 1379 619 1379 q 703 1420 694 1379 q 673 1461 711 1461 m 790 1344 l 797 1344 l 765 473 l 734 -14 l 507 -14 l 524 269 l 358 269 l 265 -14 l 38 -14 l 197 471 l 504 1344 l 510 1344 q 513 1420 502 1360 q 693 1568 542 1568 q 821 1463 821 1568 q 817 1420 821 1443 q 790 1344 805 1360 z "},"Æ":{"ha":1038,"x_min":38,"x_max":1168,"o":"m 428 269 l 358 269 l 265 -14 l 38 -14 l 197 471 l 504 1344 l 1168 1344 l 1126 1128 l 821 1128 l 752 774 l 1015 774 l 972 557 l 709 557 l 641 203 l 947 203 l 905 -14 l 373 -14 l 428 269 m 470 486 l 569 994 l 429 486 l 470 486 z "},"Ç":{"ha":741,"x_min":121,"x_max":884,"o":"m 300 -31 q 121 165 121 -13 q 132 258 121 208 l 290 1072 q 639 1365 347 1365 q 884 1160 884 1365 q 875 1072 884 1120 l 838 880 l 612 880 l 649 1072 q 597 1149 664 1148 l 596 1149 q 515 1072 530 1149 l 357 258 q 409 182 342 182 q 491 258 476 182 l 528 451 l 754 451 l 717 258 q 410 -34 663 -18 q 408 -41 408 -38 q 416 -49 406 -49 q 431 -46 422 -49 q 457 -42 446 -42 q 479 -48 470 -42 q 492 -106 500 -66 l 479 -173 q 378 -250 465 -243 q 353 -251 368 -251 q 338 -250 347 -251 q 258 -173 243 -248 l 264 -140 l 357 -142 q 381 -157 371 -157 q 403 -128 395 -157 l 404 -121 q 400 -100 408 -100 q 375 -119 393 -100 l 278 -87 l 300 -31 z "},"È":{"ha":640,"x_min":85,"x_max":881,"o":"m 349 1344 l 881 1344 l 839 1128 l 533 1128 l 465 774 l 728 774 l 685 557 l 422 557 l 353 203 l 659 203 l 617 -14 l 85 -14 l 349 1344 m 386 1567 l 561 1567 l 738 1369 l 544 1369 l 372 1496 l 386 1567 z "},"É":{"ha":640,"x_min":85,"x_max":881,"o":"m 349 1344 l 881 1344 l 839 1128 l 533 1128 l 465 774 l 728 774 l 685 557 l 422 557 l 353 203 l 659 203 l 617 -14 l 85 -14 l 349 1344 m 856 1496 l 634 1369 l 440 1369 l 694 1567 l 869 1567 l 856 1496 z "},"Ê":{"ha":640,"x_min":104,"x_max":907,"o":"m 368 1344 l 899 1344 l 857 1128 l 551 1128 l 483 774 l 746 774 l 703 557 l 440 557 l 372 203 l 677 203 l 635 -14 l 104 -14 l 368 1344 m 309 1369 l 548 1567 l 743 1567 l 907 1369 l 693 1369 l 618 1428 l 522 1369 l 309 1369 z "},"Ë":{"ha":640,"x_min":85,"x_max":881,"o":"m 349 1344 l 881 1344 l 839 1128 l 533 1128 l 465 774 l 728 774 l 685 557 l 422 557 l 353 203 l 659 203 l 617 -14 l 85 -14 l 349 1344 m 393 1560 l 591 1560 l 554 1369 l 356 1369 l 393 1560 m 662 1560 l 861 1560 l 823 1369 l 625 1369 l 662 1560 z "},"Ì":{"ha":375,"x_min":89,"x_max":589,"o":"m 353 1344 l 578 1344 l 315 -14 l 89 -14 l 353 1344 m 237 1567 l 412 1567 l 589 1369 l 395 1369 l 223 1496 l 237 1567 z "},"Í":{"ha":375,"x_min":109,"x_max":740,"o":"m 373 1344 l 599 1344 l 335 -14 l 109 -14 l 373 1344 m 726 1496 l 505 1369 l 311 1369 l 565 1567 l 740 1567 l 726 1496 z "},"Î":{"ha":375,"x_min":108,"x_max":758,"o":"m 372 1344 l 597 1344 l 334 -14 l 108 -14 l 372 1344 m 159 1369 l 399 1567 l 594 1567 l 758 1369 l 544 1369 l 469 1428 l 372 1369 l 159 1369 z "},"Ï":{"ha":375,"x_min":89,"x_max":711,"o":"m 353 1344 l 578 1344 l 315 -14 l 89 -14 l 353 1344 m 243 1560 l 441 1560 l 404 1369 l 206 1369 l 243 1560 m 512 1560 l 711 1560 l 673 1369 l 475 1369 l 512 1560 z "},"Ð":{"ha":790,"x_min":121,"x_max":923,"o":"m 462 581 l 389 203 l 456 203 q 537 279 522 203 l 687 1050 q 635 1128 702 1128 l 568 1128 l 495 751 l 562 751 l 528 581 l 462 581 m 269 751 l 385 1344 l 697 1343 q 923 1143 923 1343 q 913 1050 923 1101 l 763 279 q 433 -13 706 -13 q 422 -14 430 -13 l 121 -14 l 236 581 l 152 581 l 185 751 l 269 751 z "},"Ñ":{"ha":728,"x_min":85,"x_max":935,"o":"m 349 1344 l 572 1344 l 599 704 l 722 1341 l 935 1344 l 671 -14 l 448 -14 l 423 602 l 304 -14 l 85 -14 l 349 1344 m 488 1354 l 399 1404 l 440 1463 q 593 1567 509 1563 l 599 1567 q 717 1520 650 1567 q 760 1501 743 1501 q 776 1509 769 1501 l 825 1569 l 925 1493 l 880 1438 q 743 1358 818 1362 l 738 1358 q 621 1405 687 1358 q 581 1432 585 1431 l 580 1432 q 488 1354 572 1432 z "},"Ò":{"ha":714,"x_min":122,"x_max":884,"o":"m 717 258 q 367 -35 660 -35 q 122 170 122 -35 q 132 258 122 210 l 290 1072 q 639 1365 347 1365 q 884 1160 884 1365 q 875 1072 884 1120 l 717 258 m 649 1072 q 597 1149 664 1148 l 596 1149 q 515 1072 530 1149 l 357 258 q 409 182 342 182 q 491 258 476 182 l 649 1072 m 407 1567 l 582 1567 l 759 1369 l 565 1369 l 393 1496 l 407 1567 z "},"Ó":{"ha":714,"x_min":122,"x_max":889,"o":"m 717 258 q 367 -35 660 -35 q 122 170 122 -35 q 132 258 122 210 l 290 1072 q 639 1365 347 1365 q 884 1160 884 1365 q 875 1072 884 1120 l 717 258 m 649 1072 q 597 1149 664 1148 l 596 1149 q 515 1072 530 1149 l 357 258 q 409 182 342 182 q 491 258 476 182 l 649 1072 m 876 1496 l 654 1369 l 460 1369 l 714 1567 l 889 1567 l 876 1496 z "},"Ô":{"ha":714,"x_min":128,"x_max":916,"o":"m 723 258 q 373 -35 666 -35 q 128 170 128 -35 q 138 258 128 210 l 296 1072 q 645 1365 353 1365 q 890 1160 890 1365 q 881 1072 890 1120 l 723 258 m 655 1072 q 604 1149 670 1148 l 602 1149 q 522 1072 536 1149 l 363 258 q 415 182 349 182 q 497 258 482 182 l 655 1072 m 317 1369 l 556 1567 l 751 1567 l 916 1369 l 701 1369 l 627 1428 l 530 1369 l 317 1369 z "},"Õ":{"ha":714,"x_min":122,"x_max":918,"o":"m 717 258 q 367 -35 660 -35 q 122 170 122 -35 q 132 258 122 210 l 290 1072 q 639 1365 347 1365 q 884 1160 884 1365 q 875 1072 884 1120 l 717 258 m 649 1072 q 597 1149 664 1148 l 596 1149 q 515 1072 530 1149 l 357 258 q 409 182 342 182 q 491 258 476 182 l 649 1072 m 475 1354 l 393 1404 l 433 1463 q 587 1567 503 1563 l 592 1567 q 711 1520 643 1567 q 753 1501 736 1501 q 770 1509 762 1501 l 819 1569 l 918 1493 l 873 1438 q 737 1369 808 1370 q 733 1369 734 1369 q 614 1405 665 1369 q 574 1432 578 1431 l 573 1432 q 475 1354 566 1432 z "},"Ö":{"ha":714,"x_min":122,"x_max":884,"o":"m 717 258 q 367 -35 660 -35 q 122 170 122 -35 q 132 258 122 210 l 290 1072 q 639 1365 347 1365 q 884 1160 884 1365 q 875 1072 884 1120 l 717 258 m 649 1072 q 597 1149 664 1148 l 596 1149 q 515 1072 530 1149 l 357 258 q 409 182 342 182 q 491 258 476 182 l 649 1072 m 413 1560 l 611 1560 l 574 1369 l 376 1369 l 413 1560 m 682 1560 l 880 1560 l 843 1369 l 644 1369 l 682 1560 z "},"×":{"ha":753,"x_min":208,"x_max":804,"o":"m 480 532 l 316 395 l 208 528 l 373 666 l 262 804 l 421 937 l 532 799 l 696 937 l 804 803 l 639 666 l 750 528 l 591 395 l 480 532 z "},"Ø":{"ha":748,"x_min":72,"x_max":896,"o":"m 358 207 q 409 182 366 182 q 491 258 476 182 l 579 713 l 358 207 m 443 696 l 636 1140 q 597 1149 627 1149 l 596 1149 q 515 1072 530 1149 l 443 696 m 836 1300 q 884 1162 884 1253 q 875 1072 884 1122 l 717 258 q 367 -35 660 -35 q 259 -22 292 -35 l 201 -153 l 72 -153 l 158 45 q 132 258 103 113 l 290 1072 q 639 1365 347 1365 q 730 1356 701 1365 l 766 1438 l 896 1438 l 836 1300 z "},"Ù":{"ha":714,"x_min":122,"x_max":928,"o":"m 717 258 q 367 -35 660 -35 q 122 170 122 -35 q 132 258 122 210 l 342 1344 l 568 1344 l 357 258 q 409 182 342 182 q 491 258 476 182 l 702 1344 l 928 1344 l 717 258 m 407 1567 l 582 1567 l 759 1369 l 565 1369 l 393 1496 l 407 1567 z "},"Ú":{"ha":714,"x_min":122,"x_max":928,"o":"m 717 258 q 367 -35 660 -35 q 122 170 122 -35 q 132 258 122 210 l 342 1344 l 568 1344 l 357 258 q 409 182 342 182 q 491 258 476 182 l 702 1344 l 928 1344 l 717 258 m 876 1496 l 654 1369 l 460 1369 l 714 1567 l 889 1567 l 876 1496 z "},"Û":{"ha":714,"x_min":128,"x_max":934,"o":"m 723 258 q 373 -35 666 -35 q 128 170 128 -35 q 138 258 128 210 l 349 1344 l 574 1344 l 363 258 q 415 182 349 182 q 497 258 482 182 l 708 1344 l 934 1344 l 723 258 m 317 1369 l 556 1567 l 751 1567 l 916 1369 l 701 1369 l 627 1428 l 530 1369 l 317 1369 z "},"Ü":{"ha":714,"x_min":122,"x_max":928,"o":"m 717 258 q 367 -35 660 -35 q 122 170 122 -35 q 132 258 122 210 l 342 1344 l 568 1344 l 357 258 q 409 182 342 182 q 491 258 476 182 l 702 1344 l 928 1344 l 717 258 m 413 1560 l 611 1560 l 574 1369 l 376 1369 l 413 1560 m 682 1560 l 880 1560 l 843 1369 l 644 1369 l 682 1560 z "},"Ý":{"ha":750,"x_min":281,"x_max":1014,"o":"m 541 1344 l 556 820 l 775 1344 l 1014 1344 l 626 572 l 618 558 l 507 -14 l 281 -14 l 393 557 l 390 572 l 302 1344 l 541 1344 m 899 1496 l 677 1369 l 483 1369 l 737 1567 l 912 1567 l 899 1496 z "},"Þ":{"ha":724,"x_min":43,"x_max":828,"o":"m 532 1122 l 578 1122 q 591 1122 583 1122 l 603 1122 q 828 922 828 1122 q 818 829 828 880 l 779 629 q 531 350 737 414 q 393 335 480 335 l 379 335 l 269 -235 l 43 -235 l 350 1344 l 576 1344 l 532 1122 m 490 906 l 421 551 l 448 551 q 497 556 484 551 q 553 629 543 573 l 592 829 q 541 906 607 906 l 490 906 z "},"ß":{"ha":748,"x_min":85,"x_max":887,"o":"m 839 850 q 711 665 812 712 q 767 480 793 619 l 700 136 q 371 -157 643 -157 l 334 -158 l 376 59 q 474 136 459 59 l 541 480 q 512 553 551 536 q 465 557 501 557 l 422 557 l 311 -14 l 85 -14 l 292 1051 q 642 1344 349 1344 q 887 1139 887 1344 q 878 1051 887 1099 l 839 850 m 465 774 l 507 774 q 556 779 543 774 q 613 850 602 795 l 652 1051 q 600 1128 667 1127 l 599 1128 q 518 1051 533 1128 l 465 774 z "},"à":{"ha":740,"x_min":38,"x_max":773,"o":"m 753 415 l 734 -14 l 507 -14 l 517 235 l 351 235 l 265 -14 l 38 -14 l 185 413 l 472 1181 l 765 1181 l 753 415 m 526 426 l 542 787 l 417 426 l 526 426 m 421 1409 l 596 1409 l 773 1211 l 579 1211 l 408 1338 l 421 1409 z "},"á":{"ha":740,"x_min":38,"x_max":904,"o":"m 753 415 l 734 -14 l 507 -14 l 517 235 l 351 235 l 265 -14 l 38 -14 l 185 413 l 472 1181 l 765 1181 l 753 415 m 526 426 l 542 787 l 417 426 l 526 426 m 890 1338 l 669 1211 l 475 1211 l 729 1409 l 904 1409 l 890 1338 z "},"â":{"ha":740,"x_min":38,"x_max":924,"o":"m 753 415 l 734 -14 l 507 -14 l 517 235 l 351 235 l 265 -14 l 38 -14 l 185 413 l 472 1181 l 765 1181 l 753 415 m 526 426 l 542 787 l 417 426 l 526 426 m 326 1211 l 565 1409 l 760 1409 l 924 1211 l 710 1211 l 635 1270 l 538 1211 l 326 1211 z "},"ã":{"ha":740,"x_min":38,"x_max":903,"o":"m 754 418 l 734 -14 l 507 -14 l 518 236 l 352 236 l 265 -14 l 38 -14 l 186 416 l 473 1186 l 766 1186 l 754 418 m 526 430 l 542 790 l 418 430 l 526 430 m 485 1193 l 377 1246 l 418 1305 q 571 1409 486 1404 l 576 1409 q 694 1362 627 1409 q 738 1343 721 1343 q 753 1351 747 1343 l 802 1411 l 903 1335 l 858 1280 q 721 1200 795 1204 l 715 1200 q 598 1247 665 1200 q 559 1274 562 1273 l 557 1274 q 485 1193 550 1274 z "},"ä":{"ha":740,"x_min":38,"x_max":895,"o":"m 753 415 l 734 -14 l 507 -14 l 517 235 l 351 235 l 265 -14 l 38 -14 l 185 413 l 472 1181 l 765 1181 l 753 415 m 526 426 l 542 787 l 417 426 l 526 426 m 428 1402 l 626 1402 l 589 1211 l 391 1211 l 428 1402 m 696 1402 l 895 1402 l 858 1211 l 659 1211 l 696 1402 z "},"å":{"ha":778,"x_min":38,"x_max":791,"o":"m 526 430 l 542 790 l 418 430 l 526 430 m 642 1303 q 597 1262 604 1303 q 626 1221 589 1221 q 672 1262 664 1221 q 642 1303 680 1303 m 760 1186 l 766 1186 l 754 418 l 734 -14 l 507 -14 l 518 236 l 352 236 l 265 -14 l 38 -14 l 186 416 l 473 1186 l 479 1186 q 483 1262 471 1202 q 663 1410 511 1410 q 791 1305 791 1410 q 786 1262 791 1285 q 760 1186 774 1202 z "},"æ":{"ha":1099,"x_min":38,"x_max":1139,"o":"m 422 236 l 352 236 l 265 -14 l 38 -14 l 186 416 l 473 1186 l 1139 1186 l 1101 992 l 795 992 l 735 684 l 998 684 l 960 490 l 697 490 l 637 180 l 943 180 l 905 -14 l 374 -14 l 422 236 m 460 430 l 545 871 l 418 430 l 460 430 z "},"ç":{"ha":741,"x_min":118,"x_max":858,"o":"m 276 -24 q 118 153 118 1 q 126 228 118 187 l 265 945 q 608 1205 316 1205 q 858 1016 858 1205 q 850 945 858 983 l 817 774 l 591 774 l 625 945 q 571 1011 637 1010 q 491 945 504 1011 l 352 228 q 406 162 339 162 q 486 228 473 162 l 519 399 l 745 399 l 711 228 q 385 -32 661 -30 l 354 -61 q 413 -43 385 -42 q 461 -122 475 -53 l 455 -154 q 326 -251 436 -251 q 231 -173 216 -250 l 237 -140 l 325 -140 q 347 -176 317 -176 q 381 -137 374 -176 q 374 -99 389 -99 q 347 -119 359 -98 l 243 -100 l 276 -24 z "},"è":{"ha":627,"x_min":85,"x_max":849,"o":"m 317 1181 l 849 1181 l 812 991 l 507 991 l 446 680 l 709 680 l 672 488 l 409 488 l 349 177 l 654 177 l 617 -14 l 85 -14 l 317 1181 m 386 1409 l 561 1409 l 738 1211 l 544 1211 l 372 1338 l 386 1409 z "},"é":{"ha":627,"x_min":85,"x_max":869,"o":"m 317 1181 l 849 1181 l 812 991 l 507 991 l 446 680 l 709 680 l 672 488 l 409 488 l 349 177 l 654 177 l 617 -14 l 85 -14 l 317 1181 m 856 1338 l 634 1211 l 440 1211 l 694 1409 l 869 1409 l 856 1338 z "},"ê":{"ha":627,"x_min":104,"x_max":907,"o":"m 336 1181 l 867 1181 l 831 991 l 525 991 l 465 680 l 728 680 l 690 488 l 427 488 l 367 177 l 673 177 l 635 -14 l 104 -14 l 336 1181 m 309 1211 l 548 1409 l 743 1409 l 907 1211 l 693 1211 l 618 1270 l 522 1211 l 309 1211 z "},"ë":{"ha":627,"x_min":85,"x_max":861,"o":"m 317 1181 l 849 1181 l 812 991 l 507 991 l 446 680 l 709 680 l 672 488 l 409 488 l 349 177 l 654 177 l 617 -14 l 85 -14 l 317 1181 m 393 1402 l 591 1402 l 554 1211 l 356 1211 l 393 1402 m 662 1402 l 861 1402 l 823 1211 l 625 1211 l 662 1402 z "},"ì":{"ha":349,"x_min":89,"x_max":589,"o":"m 322 1186 l 548 1186 l 315 -14 l 89 -14 l 322 1186 m 237 1409 l 412 1409 l 589 1211 l 395 1211 l 223 1338 l 237 1409 z "},"í":{"ha":349,"x_min":109,"x_max":740,"o":"m 342 1186 l 568 1186 l 335 -14 l 109 -14 l 342 1186 m 726 1338 l 505 1211 l 311 1211 l 565 1409 l 740 1409 l 726 1338 z "},"î":{"ha":349,"x_min":108,"x_max":758,"o":"m 341 1186 l 567 1186 l 334 -14 l 108 -14 l 341 1186 m 159 1211 l 399 1409 l 594 1409 l 758 1211 l 544 1211 l 469 1270 l 372 1211 l 159 1211 z "},"ï":{"ha":349,"x_min":89,"x_max":711,"o":"m 322 1186 l 548 1186 l 315 -14 l 89 -14 l 322 1186 m 243 1402 l 441 1402 l 404 1211 l 206 1211 l 243 1402 m 512 1402 l 711 1402 l 673 1211 l 475 1211 l 512 1402 z "},"ð":{"ha":748,"x_min":126,"x_max":892,"o":"m 416 880 l 328 1014 l 482 1125 q 379 1175 460 1141 l 468 1350 q 670 1260 617 1304 l 806 1358 l 892 1224 l 774 1139 q 805 713 859 987 l 721 280 q 372 -14 664 -14 q 126 192 126 -14 q 136 280 126 233 l 184 528 q 493 807 238 807 q 593 786 571 807 q 583 1001 619 918 l 416 880 m 361 280 q 414 203 347 203 q 495 280 480 203 l 543 528 q 507 604 557 602 q 489 605 497 605 q 445 600 457 605 q 410 528 422 591 l 361 280 z "},"ñ":{"ha":728,"x_min":85,"x_max":904,"o":"m 319 1186 l 541 1186 l 583 621 l 692 1183 l 904 1186 l 671 -14 l 448 -14 l 410 530 l 304 -14 l 85 -14 l 319 1186 m 476 1189 l 369 1246 l 410 1305 q 563 1409 478 1404 l 568 1409 q 686 1362 619 1409 q 730 1343 713 1343 q 745 1351 739 1343 l 794 1411 l 895 1335 l 850 1280 q 713 1200 787 1204 l 707 1200 q 590 1247 656 1200 q 551 1274 554 1273 l 549 1274 q 522 1246 542 1274 l 476 1189 z "},"ò":{"ha":714,"x_min":117,"x_max":857,"o":"m 710 223 q 367 -35 660 -35 q 117 153 117 -35 q 125 223 117 185 l 264 939 q 606 1197 314 1197 q 857 1009 857 1197 q 849 939 857 977 l 710 223 m 623 939 q 570 1007 637 1006 l 569 1007 q 490 939 503 1007 l 351 223 q 404 156 338 156 q 484 223 471 156 l 623 939 m 407 1409 l 582 1409 l 759 1211 l 565 1211 l 393 1338 l 407 1409 z "},"ó":{"ha":714,"x_min":117,"x_max":889,"o":"m 710 223 q 367 -35 660 -35 q 117 153 117 -35 q 125 223 117 185 l 264 939 q 606 1197 314 1197 q 857 1009 857 1197 q 849 939 857 977 l 710 223 m 623 939 q 570 1007 637 1006 l 569 1007 q 490 939 503 1007 l 351 223 q 404 156 338 156 q 484 223 471 156 l 623 939 m 876 1338 l 654 1211 l 460 1211 l 714 1409 l 889 1409 l 876 1338 z "},"ô":{"ha":714,"x_min":123,"x_max":916,"o":"m 716 223 q 373 -35 666 -35 q 123 153 123 -35 q 131 223 123 185 l 270 939 q 612 1197 320 1197 q 863 1009 863 1197 q 855 939 863 977 l 716 223 m 629 939 q 576 1007 643 1006 l 575 1007 q 496 939 509 1007 l 357 223 q 410 156 344 156 q 490 223 477 156 l 629 939 m 317 1211 l 556 1409 l 751 1409 l 916 1211 l 701 1211 l 627 1270 l 530 1211 l 317 1211 z "},"õ":{"ha":714,"x_min":118,"x_max":888,"o":"m 711 228 q 368 -32 661 -32 q 118 157 118 -32 q 125 228 118 190 l 265 945 q 608 1205 316 1205 q 858 1016 858 1205 q 850 945 858 983 l 711 228 m 625 945 q 571 1011 637 1010 q 491 945 504 1011 l 351 228 q 406 162 339 162 q 485 228 473 162 l 625 945 m 458 1194 l 362 1246 l 403 1305 q 556 1409 472 1404 l 562 1409 q 680 1362 612 1409 q 723 1343 706 1343 q 739 1351 732 1343 l 788 1411 l 888 1335 l 843 1280 q 706 1200 781 1204 l 701 1200 q 584 1247 650 1200 q 544 1274 547 1273 l 543 1274 q 458 1194 535 1274 z "},"ö":{"ha":714,"x_min":117,"x_max":880,"o":"m 710 223 q 367 -35 660 -35 q 117 153 117 -35 q 125 223 117 185 l 264 939 q 606 1197 314 1197 q 857 1009 857 1197 q 849 939 857 977 l 710 223 m 623 939 q 570 1007 637 1006 l 569 1007 q 490 939 503 1007 l 351 223 q 404 156 338 156 q 484 223 471 156 l 623 939 m 413 1402 l 611 1402 l 574 1211 l 376 1211 l 413 1402 m 682 1402 l 880 1402 l 843 1211 l 644 1211 l 682 1402 z "},"÷":{"ha":709,"x_min":193,"x_max":808,"o":"m 808 760 l 772 574 l 193 574 l 229 760 l 808 760 m 422 1131 l 675 1131 l 627 884 l 374 884 l 422 1131 m 290 450 l 543 450 l 495 203 l 241 203 l 290 450 z "},"ø":{"ha":756,"x_min":37,"x_max":946,"o":"m 367 172 q 410 162 376 162 q 490 228 477 162 l 549 535 l 367 172 m 414 528 l 631 962 q 575 1011 634 1010 q 495 945 508 1011 l 414 528 m 838 1114 q 854 945 876 1055 l 715 228 q 372 -32 665 -32 q 271 -22 304 -32 l 163 -236 l 37 -228 l 167 33 q 130 228 104 93 l 269 945 q 612 1205 320 1205 q 743 1187 703 1205 l 819 1338 l 946 1330 l 838 1114 z "},"ù":{"ha":714,"x_min":117,"x_max":896,"o":"m 710 223 q 367 -35 660 -35 q 117 153 117 -35 q 125 223 117 185 l 311 1179 l 536 1179 l 351 223 q 404 156 338 156 q 484 223 471 156 l 670 1179 l 896 1179 l 710 223 m 407 1409 l 582 1409 l 759 1211 l 565 1211 l 393 1338 l 407 1409 z "},"ú":{"ha":714,"x_min":117,"x_max":896,"o":"m 710 223 q 367 -35 660 -35 q 117 153 117 -35 q 125 223 117 185 l 311 1179 l 536 1179 l 351 223 q 404 156 338 156 q 484 223 471 156 l 670 1179 l 896 1179 l 710 223 m 876 1338 l 654 1211 l 460 1211 l 714 1409 l 889 1409 l 876 1338 z "},"û":{"ha":714,"x_min":123,"x_max":916,"o":"m 716 223 q 373 -35 666 -35 q 123 153 123 -35 q 131 223 123 185 l 317 1179 l 543 1179 l 357 223 q 410 156 344 156 q 490 223 477 156 l 676 1179 l 902 1179 l 716 223 m 317 1211 l 556 1409 l 751 1409 l 916 1211 l 701 1211 l 627 1270 l 530 1211 l 317 1211 z "},"ü":{"ha":714,"x_min":117,"x_max":896,"o":"m 710 223 q 367 -35 660 -35 q 117 153 117 -35 q 125 223 117 185 l 311 1179 l 536 1179 l 351 223 q 404 156 338 156 q 484 223 471 156 l 670 1179 l 896 1179 l 710 223 m 413 1402 l 611 1402 l 574 1211 l 376 1211 l 413 1402 m 682 1402 l 880 1402 l 843 1211 l 644 1211 l 682 1402 z "},"ý":{"ha":750,"x_min":271,"x_max":983,"o":"m 509 1181 l 537 720 l 744 1181 l 983 1181 l 612 502 l 606 490 l 508 -14 l 282 -14 l 380 489 l 376 502 l 271 1181 l 509 1181 m 899 1338 l 677 1211 l 484 1211 l 738 1409 l 913 1409 l 899 1338 z "},"þ":{"ha":719,"x_min":43,"x_max":828,"o":"m 532 1122 l 578 1122 q 591 1122 583 1122 l 603 1122 q 828 922 828 1122 q 818 829 828 880 l 779 629 q 531 350 737 414 q 393 335 480 335 l 379 335 l 269 -235 l 43 -235 l 350 1344 l 576 1344 l 532 1122 m 490 906 l 421 551 l 448 551 q 497 556 484 551 q 553 629 543 573 l 592 829 q 541 906 607 906 l 490 906 z "},"ÿ":{"ha":750,"x_min":271,"x_max":983,"o":"m 509 1181 l 537 720 l 744 1181 l 983 1181 l 612 502 l 606 490 l 508 -14 l 282 -14 l 380 489 l 376 502 l 271 1181 l 509 1181 m 437 1402 l 635 1402 l 598 1211 l 400 1211 l 437 1402 m 706 1402 l 905 1402 l 867 1211 l 669 1211 l 706 1402 z "},"ı":{"ha":382,"x_min":89,"x_max":548,"o":"m 322 1186 l 548 1186 l 315 -14 l 89 -14 l 322 1186 z "},"ˆ":{"ha":823,"x_min":348,"x_max":947,"o":"m 348 1211 l 587 1409 l 783 1409 l 947 1211 l 732 1211 l 658 1270 l 561 1211 l 348 1211 z "},"ˇ":{"ha":823,"x_min":387,"x_max":985,"o":"m 600 1409 l 673 1350 l 771 1409 l 985 1409 l 744 1211 l 549 1211 l 387 1409 l 600 1409 z "},"ˉ":{"ha":644,"x_min":323,"x_max":827,"o":"m 359 1394 l 827 1394 l 791 1211 l 323 1211 l 359 1394 z "},"˘":{"ha":743,"x_min":361,"x_max":929,"o":"m 929 1407 q 598 1205 790 1205 l 593 1205 q 361 1407 398 1208 l 543 1407 q 629 1334 550 1334 l 630 1334 q 745 1407 711 1334 l 929 1407 z "},"˙":{"ha":375,"x_min":324,"x_max":560,"o":"m 361 1406 l 560 1406 l 523 1215 l 324 1215 l 361 1406 z "},"˚":{"ha":479,"x_min":329,"x_max":642,"o":"m 513 1410 q 642 1305 642 1410 q 637 1262 642 1285 q 456 1114 608 1114 q 329 1218 329 1114 q 334 1262 329 1238 q 513 1410 362 1410 m 492 1303 q 448 1262 455 1303 q 477 1221 439 1221 q 523 1262 515 1221 q 492 1303 530 1303 z "},"˛":{"ha":694,"x_min":0,"x_max":0,"o":""},"˜":{"ha":684,"x_min":330,"x_max":855,"o":"m 440 1182 l 330 1246 l 371 1305 q 524 1409 439 1404 l 530 1409 q 648 1362 581 1409 q 691 1343 674 1343 q 707 1351 700 1343 l 755 1411 l 855 1335 l 811 1280 q 674 1200 749 1204 l 669 1200 q 551 1247 618 1200 q 512 1274 515 1273 l 511 1274 q 484 1246 503 1274 l 440 1182 z "},"˝":{"ha":694,"x_min":0,"x_max":0,"o":""},"–":{"ha":829,"x_min":142,"x_max":931,"o":"m 142 557 l 178 742 l 931 742 l 895 557 l 142 557 z "},"—":{"ha":1423,"x_min":142,"x_max":1544,"o":"m 142 557 l 178 742 l 1544 742 l 1508 557 l 142 557 z "},"‘":{"ha":412,"x_min":258,"x_max":584,"o":"m 530 876 l 258 876 l 299 1086 l 426 1345 l 584 1345 l 501 1123 l 578 1123 l 530 876 z "},"’":{"ha":448,"x_min":296,"x_max":621,"o":"m 350 1345 l 621 1345 l 580 1135 l 454 876 l 296 876 l 378 1097 l 302 1097 l 350 1345 z "},"‚":{"ha":412,"x_min":74,"x_max":399,"o":"m 127 234 l 399 234 l 358 24 l 231 -235 l 74 -235 l 157 -14 l 79 -14 l 127 234 z "},"“":{"ha":710,"x_min":258,"x_max":916,"o":"m 530 876 l 258 876 l 299 1086 l 426 1345 l 584 1345 l 501 1123 l 578 1123 l 530 876 m 862 876 l 591 876 l 631 1086 l 758 1345 l 916 1345 l 833 1123 l 910 1123 l 862 876 z "},"”":{"ha":746,"x_min":296,"x_max":954,"o":"m 350 1345 l 621 1345 l 580 1135 l 454 876 l 296 876 l 378 1097 l 302 1097 l 350 1345 m 682 1345 l 954 1345 l 912 1135 l 786 876 l 628 876 l 711 1097 l 634 1097 l 682 1345 z "},"„":{"ha":746,"x_min":296,"x_max":954,"o":"m 350 235 l 621 235 l 580 24 l 454 -235 l 296 -235 l 378 -13 l 302 -13 l 350 235 m 682 235 l 954 235 l 912 24 l 786 -235 l 628 -235 l 711 -13 l 634 -13 l 682 235 z "},"†":{"ha":1020,"x_min":263,"x_max":1116,"o":"m 780 1000 l 1035 1034 q 1055 1036 1045 1036 q 1116 968 1116 1036 q 1112 926 1116 949 q 1006 816 1090 816 q 987 817 997 816 l 754 852 q 707 524 746 728 l 686 416 q 637 80 646 214 q 635 62 637 71 q 509 -14 621 -13 q 410 68 395 -14 q 415 84 412 75 q 495 398 458 211 q 508 469 502 433 q 518 526 513 498 q 600 850 557 725 l 345 816 q 325 814 334 814 q 263 883 263 814 q 267 924 263 901 q 372 1034 289 1034 q 392 1033 382 1034 l 625 997 l 641 1249 q 642 1269 641 1259 q 770 1343 657 1343 q 868 1263 884 1343 q 863 1246 866 1255 l 780 1000 z "},"‡":{"ha":1020,"x_min":161,"x_max":1116,"o":"m 863 1246 q 791 1008 805 1074 q 1034 1034 849 1010 q 1054 1036 1044 1036 q 1116 967 1116 1036 q 1112 926 1116 949 q 1006 816 1090 816 q 987 817 997 816 l 753 852 l 750 795 q 766 739 772 774 q 762 726 764 733 q 747 669 753 699 q 738 600 741 635 q 736 585 738 592 q 695 529 730 548 l 678 481 l 933 514 q 953 515 943 515 q 1010 407 1031 515 q 904 296 989 296 q 886 297 896 296 l 652 333 l 637 80 q 635 62 637 71 q 509 -14 621 -13 q 410 68 394 -14 q 414 84 411 75 l 498 330 l 244 296 q 222 294 233 294 q 161 361 161 294 q 166 404 161 380 q 271 514 188 514 q 290 513 280 514 l 524 477 l 527 535 q 512 591 505 555 q 515 604 513 597 q 530 661 525 631 q 539 730 537 694 q 541 745 539 738 q 582 801 548 782 l 599 850 l 344 816 q 324 814 334 814 q 267 924 246 814 q 372 1034 289 1034 q 391 1033 381 1034 l 625 997 l 640 1250 q 642 1268 641 1260 q 769 1343 657 1343 q 867 1262 884 1343 q 863 1246 866 1255 z "},"•":{"ha":703,"x_min":213,"x_max":750,"o":"m 532 927 q 704 850 642 927 q 750 718 750 793 q 745 667 750 693 q 633 484 724 560 q 431 407 541 407 q 258 484 321 407 q 213 614 213 541 q 218 667 213 640 q 330 850 239 774 q 532 927 422 927 z "},"…":{"ha":1389,"x_min":79,"x_max":1308,"o":"m 127 234 l 381 234 l 333 -14 l 79 -14 l 127 234 m 590 234 l 844 234 l 796 -14 l 542 -14 l 590 234 m 1053 234 l 1308 234 l 1259 -14 l 1005 -14 l 1053 234 z "},"‹":{"ha":593,"x_min":220,"x_max":711,"o":"m 659 794 l 489 671 l 612 551 l 562 292 l 220 680 l 711 1059 l 659 794 z "},"›":{"ha":593,"x_min":145,"x_max":637,"o":"m 294 1059 l 637 680 l 145 292 l 195 551 l 364 671 l 243 794 l 294 1059 z "},"⁄":{"ha":277,"x_min":-195,"x_max":723,"o":"m 723 1345 l -40 -14 l -195 -14 l 569 1345 l 723 1345 z "},"₣":{"ha":687,"x_min":82,"x_max":907,"o":"m 196 418 l 376 1344 l 907 1344 l 865 1128 l 559 1128 l 491 774 l 754 774 l 712 557 l 449 557 l 422 418 l 548 418 l 515 248 l 389 248 l 338 -14 l 112 -14 l 163 248 l 82 248 l 115 418 l 196 418 z "},"₤":{"ha":797,"x_min":38,"x_max":974,"o":"m 336 851 l 379 1072 q 729 1366 436 1366 q 974 1160 974 1366 q 964 1072 974 1120 l 927 880 l 701 880 l 739 1072 q 687 1149 753 1149 l 686 1149 q 605 1072 620 1149 l 562 851 l 787 851 l 761 716 l 536 716 l 520 636 l 745 636 l 720 501 l 494 501 l 469 374 q 405 203 446 251 l 743 203 l 701 -14 l 38 -14 l 80 203 l 144 203 q 225 280 210 203 l 269 501 l 138 501 l 164 636 l 294 636 l 310 716 l 180 716 l 206 851 l 336 851 z "},"₧":{"ha":1509,"x_min":85,"x_max":1730,"o":"m 514 1128 l 446 774 l 468 774 q 511 778 500 774 q 562 850 551 795 l 601 1050 q 558 1128 616 1128 l 514 1128 m 796 992 l 769 850 q 539 572 727 635 q 414 557 493 557 l 403 557 l 292 -14 l 85 -14 l 349 1344 l 618 1343 q 817 1186 804 1343 l 1311 1186 l 1309 1177 q 1480 1205 1358 1205 q 1730 1015 1730 1205 q 1723 945 1730 983 l 1689 774 l 1463 774 l 1497 945 q 1443 1011 1510 1010 q 1363 945 1376 1011 l 1342 839 q 1480 658 1329 767 q 1612 376 1644 541 l 1583 228 q 1240 -32 1533 -32 q 998 228 947 -32 l 1031 399 l 1257 399 l 1223 228 q 1278 162 1211 162 q 1357 228 1344 162 l 1383 361 q 1248 549 1398 440 q 1116 835 1083 667 l 1137 945 q 1148 992 1143 978 l 1093 992 l 898 -14 l 672 -14 l 867 992 l 796 992 z "},"€":{"ha":776,"x_min":115,"x_max":919,"o":"m 279 840 l 324 1072 q 673 1366 381 1366 q 919 1160 919 1366 q 909 1072 919 1120 l 872 880 l 646 880 l 684 1072 q 632 1149 699 1149 l 631 1149 q 550 1072 565 1149 l 505 840 l 764 840 l 738 706 l 479 706 l 463 625 l 722 625 l 696 490 l 437 490 l 392 258 q 444 182 377 182 q 526 258 511 182 l 563 451 l 789 451 l 751 258 q 401 -35 694 -35 q 157 171 157 -35 q 166 258 157 211 l 211 490 l 115 490 l 142 625 l 237 625 l 253 706 l 157 706 l 184 840 l 279 840 z "},"№":{"ha":1255,"x_min":85,"x_max":1441,"o":"m 349 1344 l 572 1344 l 593 675 l 723 1344 l 935 1344 l 671 -14 l 448 -14 l 430 637 l 304 -14 l 85 -14 l 349 1344 m 1353 753 q 1122 591 1322 591 q 955 753 924 591 l 1039 1183 q 1269 1344 1070 1344 q 1441 1223 1441 1344 q 1437 1183 1441 1204 l 1353 753 m 1276 1183 q 1244 1217 1282 1217 q 1200 1183 1206 1217 l 1116 753 q 1147 718 1109 718 q 1192 753 1185 718 l 1276 1183 m 880 330 l 908 475 l 1292 475 l 1263 330 l 880 330 z "},"™":{"ha":785,"x_min":243,"x_max":965,"o":"m 553 1186 l 534 1083 l 453 1083 l 364 627 l 243 627 l 332 1083 l 252 1083 l 271 1186 l 553 1186 m 699 871 l 848 1187 l 965 1187 l 856 627 l 739 627 l 773 801 l 696 627 l 610 627 l 599 805 l 564 627 l 447 627 l 556 1187 l 673 1187 l 699 871 z "},"∂":{"ha":748,"x_min":126,"x_max":823,"o":"m 593 786 q 378 1175 647 1063 l 468 1350 q 823 885 823 1240 q 805 713 823 806 l 721 280 q 371 -14 664 -14 q 126 192 126 -14 q 136 280 126 232 l 184 528 q 492 807 238 807 q 593 786 571 807 m 361 280 q 414 203 347 203 q 495 280 480 203 l 543 528 q 506 604 557 602 q 488 605 496 605 q 445 600 457 605 q 410 528 422 591 l 361 280 z "},"∆":{"ha":733,"x_min":0,"x_max":0,"o":""},"∏":{"ha":1027,"x_min":0,"x_max":0,"o":""},"∑":{"ha":818,"x_min":0,"x_max":0,"o":""},"−":{"ha":743,"x_min":193,"x_max":808,"o":"m 808 760 l 772 574 l 193 574 l 229 760 l 808 760 z "},"√":{"ha":688,"x_min":0,"x_max":0,"o":""},"∞":{"ha":688,"x_min":0,"x_max":0,"o":""},"∫":{"ha":451,"x_min":0,"x_max":0,"o":""},"≈":{"ha":746,"x_min":191,"x_max":853,"o":"m 314 613 l 191 705 l 247 770 q 441 882 340 882 l 448 882 q 595 808 513 880 q 654 776 631 776 q 676 786 666 776 l 743 853 l 853 749 l 791 687 q 623 604 709 604 l 614 604 q 467 679 549 606 q 417 718 424 717 l 415 718 q 374 685 402 718 l 314 613 m 314 331 l 191 422 l 247 488 q 441 600 340 600 l 448 600 q 595 526 513 597 q 654 494 631 494 q 676 504 666 494 l 743 571 l 853 467 l 791 405 q 623 321 709 321 l 614 321 q 467 397 549 324 q 417 436 424 435 l 415 436 q 374 403 402 436 l 314 331 z "},"≤":{"ha":710,"x_min":189,"x_max":875,"o":"m 230 739 l 875 1064 l 832 845 l 407 635 l 751 431 l 709 212 l 189 528 l 230 739 m 808 172 l 772 -14 l 193 -14 l 229 172 l 808 172 z "},"≥":{"ha":710,"x_min":128,"x_max":812,"o":"m 770 528 l 128 212 l 171 431 l 595 635 l 251 845 l 294 1064 l 812 739 l 770 528 m 809 172 l 773 -14 l 193 -14 l 229 172 l 809 172 z "},"":{"ha":998,"x_min":85,"x_max":1173,"o":"m 317 1181 l 849 1181 l 812 991 l 507 991 l 446 680 l 709 680 l 672 488 l 409 488 l 311 -14 l 85 -14 l 317 1181 m 947 1181 l 1173 1181 l 941 -14 l 715 -14 l 947 1181 z "},"":{"ha":1253,"x_min":85,"x_max":1281,"o":"m 317 1181 l 849 1181 l 812 991 l 507 991 l 446 680 l 709 680 l 672 488 l 409 488 l 311 -14 l 85 -14 l 317 1181 m 712 -14 l 944 1181 l 1170 1181 l 975 177 l 1281 177 l 1244 -14 l 712 -14 z "}}}
